# xmcd
#
# Track frame offsets:
# 150
# 2041
# 15160
# 16816
# 33065
# 34883
# 48822
# 51023
# 66462
# 67983
# 80630
# 82479
# 92183
# 93139
# 106707
# 144276
# 162398
# 163649
# 178779
# 179717
# 193139
#
# Disc length: 2758 seconds
#
#
# Revision: 0
# Processed by: cddbd v1.5.2PL0 Copyright (c) Steve Scherf et al.
# Submitted via: FreeRIP 2.945 
#
DISCID=0c0ac415
DTITLE=A jó Laci betyár
DYEAR=1900
DGENRE=
TTITLE0=Beköszöntõ a lakodalmas házba
TTITLE1=Lakodalom van a mi utcánkban
TTITLE2=A násznép köszöntése
TTITLE3=Jó estét kívánok
TTITLE4=A võlegény búcsúja a legényélettõl
TTITLE5=Egy asszony miatt vagyok ilyen léha
TTITLE6=Ételek köszöntõje
TTITLE7=Jaj be magas, jaj be magas
TTITLE8=Pénzgyûjtés a zenészeknek
TTITLE9=Asztalozik a roma
TTITLE10=Phárköszöntõ I.
TTITLE11=Máma még nem ittunk semmit
TTITLE12=Vonatozás beköszöntése (játék)
TTITLE13=Megy a gõzös
TTITLE14=Menyecsketánc
TTITLE15=Asszony lesz a lányból
TTITLE16=Új pár köszöntése
TTITLE17=Most kezdõdik a tánc
TTITLE18=Pohárköszöntõ II.
TTITLE19=Nem, nem, nem, nem megyünk mi innen el
TTITLE20=Bónus track: Betyár nóta
EXTD=
EXTT0=
EXTT1=
EXTT2=
EXTT3=
EXTT4=
EXTT5=
EXTT6=
EXTT7=
EXTT8=
EXTT9=
EXTT10=
EXTT11=
EXTT12=
EXTT13=
EXTT14=
EXTT15=
EXTT16=
EXTT17=
EXTT18=
EXTT19=
EXTT20=
PLAYORDER=
